<svg xmlns="http://www.w3.org/2000/svg" fill-rule="evenodd" viewBox="0 0 650 324" clip-rule="evenodd"><path fill="#333" d="M1.17 0h647v323.5h-647z"/><path fill="#f8d473" d="M0 0h649.34L0 323.5V0z"/><path fill="#333" d="M164.35 198.8h19.88v-29.4h38.48v-17.74h-38.47V119.7h42.3v-17.46h-62.18v96.56zM271.13 200.08c18.9 0 32.95-9.8 32.95-27.7 0-16.6-9.52-24-26.42-31.23l-4.97-2.13c-8.53-3.7-12.22-6.1-12.22-12.07 0-4.83 3.7-8.52 9.52-8.52 5.68 0 9.37 2.42 12.78 8.52l15.47-9.94c-6.53-11.5-15.62-15.9-28.25-15.9-17.75 0-29.1 11.37-29.1 26.28 0 16.2 9.5 23.85 23.84 29.96l4.97 2.13c9.1 3.98 14.5 6.4 14.5 13.2 0 5.7-5.26 9.8-13.5 9.8-9.8 0-15.33-5.1-19.6-12.07l-16.18 9.38c5.82 11.5 17.75 20.3 36.2 20.3zM327.93 199.66c6.4 0 11.93-4.97 11.93-12.07 0-6.97-5.54-11.94-11.93-11.94-6.53 0-12.07 4.97-12.07 11.93 0 7.1 5.54 12.06 12.07 12.06z"/><path fill="#f8d473" d="M380.05 200.08c17.6 0 29.67-9.37 29.67-29.96v-67.88h-19.88v67.6c0 9.94-4.1 12.5-10.65 12.5-6.82 0-9.66-4.7-12.8-10.23l-16.17 9.8c4.68 9.95 13.9 18.18 29.82 18.18zM456.73 200.08c18.88 0 32.94-9.8 32.94-27.7 0-16.6-9.5-24-26.4-31.23l-4.98-2.13c-8.53-3.7-12.22-6.1-12.22-12.07 0-4.83 3.7-8.52 9.5-8.52 5.7 0 9.38 2.42 12.8 8.52l15.47-9.94c-6.53-11.5-15.62-15.9-28.26-15.9-17.76 0-29.12 11.37-29.12 26.28 0 16.2 9.5 23.85 23.86 29.96l4.97 2.13c9.1 3.98 14.5 6.4 14.5 13.2 0 5.7-5.26 9.8-13.5 9.8-9.8 0-15.34-5.1-19.6-12.07l-16.18 9.38c5.82 11.5 17.75 20.3 36.2 20.3z"/></svg>