<svg id="Layer_1" data-name="Layer 1" xmlns="http://www.w3.org/2000/svg" viewBox="0 0 16 16" fill="#b07d4d"><circle cx="8" cy="8" r="3"/><path d="M9,2A1,1,0,0,1,8,3H8A1,1,0,0,1,7,2V1A1,1,0,0,1,8,0H8A1,1,0,0,1,9,1Z"/><path d="M9,15a1,1,0,0,1-1,1H8a1,1,0,0,1-1-1V14a1,1,0,0,1,1-1H8a1,1,0,0,1,1,1Z"/><path d="M14,9a1,1,0,0,1-1-1h0a1,1,0,0,1,1-1h1a1,1,0,0,1,1,1h0a1,1,0,0,1-1,1Z"/><path d="M1,9A1,1,0,0,1,0,8H0A1,1,0,0,1,1,7H2A1,1,0,0,1,3,8H3A1,1,0,0,1,2,9Z"/><path d="M13,4.46a1,1,0,0,1-1.41,0h0a1,1,0,0,1,0-1.41l.7-.71a1,1,0,0,1,1.42,1.42Z"/><path d="M3.76,13.66a1,1,0,0,1-1.42-1.42l.71-.7a1,1,0,0,1,1.41,0h0a1,1,0,0,1,0,1.41Z"/><path d="M4.46,3.05a1,1,0,0,1,0,1.41h0a1,1,0,0,1-1.41,0l-.71-.7A1,1,0,0,1,3.76,2.34Z"/><path d="M13.66,12.24a1,1,0,0,1-1.42,1.42l-.7-.71a1,1,0,0,1,0-1.41h0a1,1,0,0,1,1.41,0Z"/></svg>