<svg width="39" height="37" viewBox="0 0 39 37" fill="none" xmlns="http://www.w3.org/2000/svg">
<path d="M8.99996 36.6667H0.666626V11.6667H8.99996V36.6667ZM4.83496 8.33333C2.52996 8.33333 0.666626 6.465 0.666626 4.165C0.666626 1.865 2.53329 0 4.83496 0C7.13163 0 8.99996 1.86833 8.99996 4.165C8.99996 6.465 7.13163 8.33333 4.83496 8.33333ZM39 36.6667H30.9883V24.5C30.9883 21.5983 30.9333 17.8667 26.8233 17.8667C22.6516 17.8667 22.01 21.0267 22.01 24.29V36.6667H14V11.6483H21.69V15.0667H21.7983C22.8683 13.1 25.4833 11.0267 29.3833 11.0267C37.5 11.0267 39 16.2083 39 22.945C39 22.945 39 36.6667 39 36.6667Z" fill="#B07D4D"/>
</svg>
