<svg width="44" height="36" viewBox="0 0 44 36" fill="none" xmlns="http://www.w3.org/2000/svg">
<path d="M43.6667 4.56164C42.0717 5.26998 40.3583 5.74664 38.56 5.96164C40.3967 4.86164 41.805 3.11998 42.4683 1.04331C40.7517 2.06164 38.8483 2.80164 36.8217 3.20164C35.2 1.47331 32.89 0.393311 30.3333 0.393311C25.4233 0.393311 21.4433 4.37498 21.4433 9.28331C21.4433 9.97998 21.5233 10.66 21.6733 11.3083C14.285 10.9383 7.735 7.39831 3.34833 2.01831C2.585 3.33164 2.14667 4.85831 2.14667 6.48998C2.14667 9.57331 3.715 12.295 6.1 13.8883C4.64333 13.8416 3.27166 13.4416 2.07333 12.7766C2.07333 12.815 2.07333 12.85 2.07333 12.8883C2.07333 17.1966 5.13666 20.79 9.205 21.605C8.46 21.8083 7.67333 21.9166 6.86166 21.9166C6.29 21.9166 5.73166 21.86 5.19 21.7583C6.32166 25.29 9.605 27.8616 13.495 27.9333C10.4533 30.3183 6.62 31.74 2.45333 31.74C1.73667 31.74 1.02833 31.6983 0.331665 31.615C4.26666 34.1366 8.93833 35.6083 13.96 35.6083C30.3133 35.6083 39.2533 22.0616 39.2533 10.3133C39.2533 9.92831 39.245 9.54498 39.2283 9.16331C40.9667 7.90831 42.475 6.34331 43.6667 4.56164Z" fill="#B07D4D"/>
</svg>
