<svg width="40" height="40" viewBox="0 0 40 40" fill="none" xmlns="http://www.w3.org/2000/svg">
<path d="M20 0C8.955 0 0 8.955 0 20C0 29.3717 6.45333 37.2133 15.1533 39.3833C15.06 39.1133 15 38.8 15 38.4117V34.9933C14.1883 34.9933 12.8283 34.9933 12.4867 34.9933C11.1183 34.9933 9.90166 34.405 9.31166 33.3117C8.65666 32.0967 8.54333 30.2383 6.92 29.1017C6.43833 28.7233 6.805 28.2917 7.36 28.35C8.385 28.64 9.235 29.3433 10.035 30.3867C10.8317 31.4317 11.2067 31.6683 12.695 31.6683C13.4167 31.6683 14.4967 31.6267 15.5133 31.4667C16.06 30.0783 17.005 28.8 18.16 28.1967C11.5 27.5117 8.32166 24.1983 8.32166 19.7C8.32166 17.7633 9.14666 15.89 10.5483 14.3117C10.0883 12.745 9.51 9.55 10.725 8.33333C13.7217 8.33333 15.5333 10.2767 15.9683 10.8017C17.4617 10.29 19.1017 10 20.825 10C22.5517 10 24.1983 10.29 25.695 10.805C26.125 10.2833 27.9383 8.33333 30.9417 8.33333C32.1617 9.55167 31.5767 12.76 31.1117 14.3233C32.505 15.8983 33.325 17.7667 33.325 19.7C33.325 24.195 30.1517 27.5067 23.5017 28.195C25.3317 29.15 26.6667 31.8333 26.6667 33.855V38.4117C26.6667 38.585 26.6283 38.71 26.6083 38.8583C34.4017 36.1267 40 28.7267 40 20C40 8.955 31.045 0 20 0Z" fill="#B07D4D"/>
</svg>
